<svg width="24" height="24" viewBox="0 0 24 24" fill="none" xmlns="http://www.w3.org/2000/svg"><rect width="24" height="24" rx="4" class="fill-slate-900 dark:fill-white"></rect><path d="M10.0013 6.66406H7.33464C6.96645 6.66406 6.66797 6.96254 6.66797 7.33073V9.9974C6.66797 10.3656 6.96645 10.6641 7.33464 10.6641H10.0013C10.3695 10.6641 10.668 10.3656 10.668 9.9974V7.33073C10.668 6.96254 10.3695 6.66406 10.0013 6.66406Z" class="stroke-white dark:stroke-slate-900" stroke-width="1.5" stroke-linecap="round" stroke-linejoin="round"></path><path d="M8.66797 15.3359V15.3426" class="stroke-white dark:stroke-slate-900" stroke-width="1.5" stroke-linecap="round" stroke-linejoin="round"></path><path d="M16.6654 6.66406H13.9987C13.6305 6.66406 13.332 6.96254 13.332 7.33073V9.9974C13.332 10.3656 13.6305 10.6641 13.9987 10.6641H16.6654C17.0336 10.6641 17.332 10.3656 17.332 9.9974V7.33073C17.332 6.96254 17.0336 6.66406 16.6654 6.66406Z" class="stroke-white dark:stroke-slate-900" stroke-width="1.5" stroke-linecap="round" stroke-linejoin="round"></path><path d="M8.66797 8.66406V8.67073" class="stroke-white dark:stroke-slate-900" stroke-width="1.5" stroke-linecap="round" stroke-linejoin="round"></path><path d="M10.0013 13.3359H7.33464C6.96645 13.3359 6.66797 13.6344 6.66797 14.0026V16.6693C6.66797 17.0375 6.96645 17.3359 7.33464 17.3359H10.0013C10.3695 17.3359 10.668 17.0375 10.668 16.6693V14.0026C10.668 13.6344 10.3695 13.3359 10.0013 13.3359Z" class="stroke-white dark:stroke-slate-900" stroke-width="1.5" stroke-linecap="round" stroke-linejoin="round"></path><path d="M15.332 8.66406V8.67073" class="stroke-white dark:stroke-slate-900" stroke-width="1.5" stroke-linecap="round" stroke-linejoin="round"></path><path d="M13.332 13.3359H15.332" class="stroke-white dark:stroke-slate-900" stroke-width="1.5" stroke-linecap="round" stroke-linejoin="round"></path><path d="M17.332 13.3359V13.3426" class="stroke-white dark:stroke-slate-900" stroke-width="1.5" stroke-linecap="round" stroke-linejoin="round"></path><path d="M13.332 13.3359V15.3359" class="stroke-white dark:stroke-slate-900" stroke-width="1.5" stroke-linecap="round" stroke-linejoin="round"></path><path d="M13.332 17.3359H15.332" class="stroke-white dark:stroke-slate-900" stroke-width="1.5" stroke-linecap="round" stroke-linejoin="round"></path><path d="M15.332 15.3359H17.332" class="stroke-white dark:stroke-slate-900" stroke-width="1.5" stroke-linecap="round" stroke-linejoin="round"></path><path d="M17.332 15.3359V17.3359" class="stroke-white dark:stroke-slate-900" stroke-width="1.5" stroke-linecap="round" stroke-linejoin="round"></path></svg>