<svg class="relative left-[.5px]" width="17" height="17" viewBox="0 0 24 25" fill="none" xmlns="http://www.w3.org/2000/svg" style="min-width: 17px;"><path d="M18 8.5H10C8.89543 8.5 8 9.39543 8 10.5V18.5C8 19.6046 8.89543 20.5 10 20.5H18C19.1046 20.5 20 19.6046 20 18.5V10.5C20 9.39543 19.1046 8.5 18 8.5Z" stroke="currentColor" stroke-width="2" stroke-linecap="round" stroke-linejoin="round"></path><path d="M16 8.5V6.5C16 5.96957 15.7893 5.46086 15.4142 5.08579C15.0391 4.71071 14.5304 4.5 14 4.5H6C5.46957 4.5 4.96086 4.71071 4.58579 5.08579C4.21071 5.46086 4 5.96957 4 6.5V14.5C4 15.0304 4.21071 15.5391 4.58579 15.9142C4.96086 16.2893 5.46957 16.5 6 16.5H8" stroke="currentColor" stroke-width="2" stroke-linecap="round" stroke-linejoin="round"></path></svg>