<svg width="24" height="24" viewBox="0 0 24 24" fill="none" xmlns="http://www.w3.org/2000/svg" style="min-width: 24px;"><rect width="24" height="24" rx="4" class="fill-slate-900 dark:fill-white"></rect><path d="M15.3346 9.33073V7.33073C15.3346 7.15392 15.2644 6.98435 15.1394 6.85932C15.0143 6.7343 14.8448 6.66406 14.668 6.66406H8.0013C7.64768 6.66406 7.30854 6.80454 7.05849 7.05459C6.80844 7.30464 6.66797 7.64377 6.66797 7.9974C6.66797 8.35102 6.80844 8.69016 7.05849 8.94021C7.30854 9.19025 7.64768 9.33073 8.0013 9.33073H16.0013C16.1781 9.33073 16.3477 9.40097 16.4727 9.52599C16.5977 9.65102 16.668 9.82059 16.668 9.9974V11.9974M16.668 14.6641V16.6641C16.668 16.8409 16.5977 17.0104 16.4727 17.1355C16.3477 17.2605 16.1781 17.3307 16.0013 17.3307H8.0013C7.64768 17.3307 7.30854 17.1903 7.05849 16.9402C6.80844 16.6902 6.66797 16.351 6.66797 15.9974V7.9974" class="stroke-white dark:stroke-slate-900" stroke-width="1.5" stroke-linecap="round" stroke-linejoin="round"></path><path d="M17.332 12V14.6667H14.6654C14.3117 14.6667 13.9726 14.5262 13.7226 14.2761C13.4725 14.0261 13.332 13.687 13.332 13.3333C13.332 12.9797 13.4725 12.6406 13.7226 12.3905C13.9726 12.1405 14.3117 12 14.6654 12H17.332Z" class="stroke-white dark:stroke-slate-900" stroke-width="1.5" stroke-linecap="round" stroke-linejoin="round"></path></svg>